<svg width="24.013184" height="24.047852" viewBox="0 0 24.0132 24.0479" fill="none" xmlns="http://www.w3.org/2000/svg" xmlns:xlink="http://www.w3.org/1999/xlink">
	<desc>
			Created with Pixso.
	</desc>
	<defs/>
	<path id="Vector" d="M12 24.04C8.72 24.04 8.33 24.03 7.05 23.97C6.05 23.94 5.06 23.73 4.14 23.37C3.34 23.06 2.62 22.59 2.01 21.98C1.41 21.38 0.94 20.66 0.63 19.86C0.28 18.93 0.09 17.94 0.07 16.95C0 15.67 0 15.25 0 12C0 8.71 0.01 8.32 0.07 7.05C0.09 6.05 0.28 5.07 0.63 4.14C0.94 3.34 1.41 2.62 2.01 2.01C2.62 1.41 3.34 0.94 4.14 0.63C5.07 0.28 6.06 0.09 7.05 0.07C8.32 0 8.74 0 12 0C15.3 0 15.68 0.01 16.94 0.07C17.94 0.09 18.93 0.27 19.86 0.63C20.66 0.94 21.38 1.41 21.99 2.01C22.59 2.62 23.06 3.34 23.37 4.14C23.73 5.08 23.92 6.08 23.93 7.09C24.01 8.37 24.01 8.79 24.01 12.04C24.01 15.29 23.99 15.72 23.93 16.98C23.91 17.98 23.72 18.97 23.37 19.9C23.06 20.7 22.59 21.42 21.99 22.03C21.38 22.63 20.66 23.1 19.86 23.41C18.93 23.76 17.94 23.95 16.95 23.97C15.67 24.04 15.26 24.04 12 24.04ZM11.95 2.11C8.69 2.11 8.35 2.12 7.08 2.18C6.32 2.19 5.56 2.33 4.85 2.59C4.33 2.79 3.86 3.1 3.46 3.49C3.07 3.89 2.76 4.36 2.56 4.88C2.29 5.6 2.15 6.36 2.14 7.13C2.07 8.42 2.07 8.76 2.07 12C2.07 15.2 2.09 15.58 2.14 16.87C2.16 17.63 2.3 18.38 2.56 19.09C2.97 20.14 3.8 20.97 4.85 21.37C5.56 21.64 6.32 21.78 7.08 21.79C8.37 21.86 8.71 21.86 11.95 21.86C15.22 21.86 15.56 21.85 16.82 21.79C17.58 21.78 18.34 21.64 19.05 21.37C19.57 21.17 20.04 20.87 20.43 20.48C20.82 20.08 21.13 19.61 21.33 19.1C21.6 18.38 21.74 17.61 21.74 16.85L21.76 16.85C21.81 15.57 21.81 15.23 21.81 11.97C21.81 8.72 21.8 8.37 21.74 7.1C21.73 6.34 21.59 5.59 21.33 4.88C21.13 4.36 20.82 3.89 20.43 3.5C20.04 3.1 19.57 2.79 19.05 2.59C18.33 2.33 17.58 2.19 16.82 2.18C15.53 2.11 15.2 2.11 11.95 2.11ZM12 18.15C10.78 18.15 9.58 17.79 8.57 17.12C7.56 16.44 6.76 15.48 6.3 14.35C5.83 13.23 5.71 11.99 5.94 10.79C6.18 9.59 6.77 8.5 7.63 7.63C8.49 6.77 9.59 6.18 10.79 5.94C11.98 5.71 13.22 5.83 14.35 6.29C15.47 6.76 16.44 7.55 17.12 8.56C17.79 9.58 18.15 10.77 18.16 11.99C18.15 13.62 17.5 15.19 16.35 16.34C15.19 17.5 13.63 18.15 12 18.15ZM12 7.99C11.2 7.99 10.43 8.22 9.77 8.66C9.12 9.1 8.6 9.72 8.3 10.46C8 11.19 7.92 11.99 8.07 12.77C8.23 13.54 8.61 14.25 9.17 14.81C9.73 15.37 10.44 15.75 11.21 15.91C11.99 16.06 12.79 15.98 13.53 15.68C14.26 15.38 14.88 14.87 15.32 14.21C15.76 13.55 16 12.78 16 11.99C15.99 10.93 15.57 9.91 14.82 9.16C14.07 8.41 13.06 7.99 12 7.99ZM18.39 7.04C18.21 7.03 18.02 7 17.85 6.92C17.67 6.85 17.51 6.74 17.38 6.61C17.11 6.34 16.96 5.97 16.96 5.59C16.96 5.21 17.12 4.85 17.39 4.58C17.66 4.31 18.02 4.16 18.41 4.16C18.79 4.16 19.15 4.31 19.42 4.59C19.69 4.86 19.84 5.22 19.84 5.6C19.84 5.98 19.68 6.35 19.41 6.62C19.14 6.89 18.78 7.04 18.39 7.04Z" fill="#FFFFFF" fill-opacity="1.000000" fill-rule="nonzero"/>
</svg>
