<svg width="36.825684" height="40.000000" viewBox="0 0 36.8257 40" fill="none" xmlns="http://www.w3.org/2000/svg" xmlns:xlink="http://www.w3.org/1999/xlink">
	<desc>
			Created with Pixso.
	</desc>
	<defs/>
	<path id="Vector" d="M36.8 9.43C36.8 9.27 36.77 9.12 36.7 8.98C36.57 8.69 36.31 8.5 36.02 8.44L18.82 0.1C18.54 -0.04 18.21 -0.04 17.93 0.1L0.57 8.51C0.23 8.67 0.01 9.01 0 9.39L0 9.4C0 9.41 0 9.42 0 9.43L0 30.56C0 30.94 0.21 31.3 0.57 31.47L17.93 39.89C17.94 39.89 17.94 39.89 17.95 39.89C17.98 39.9 18 39.91 18.03 39.93C18.04 39.93 18.04 39.94 18.06 39.94C18.09 39.94 18.11 39.95 18.14 39.96C18.15 39.96 18.15 39.97 18.16 39.97C18.19 39.98 18.22 39.98 18.25 39.99C18.26 39.99 18.26 39.99 18.27 39.99C18.31 39.99 18.35 40 18.38 40C18.42 40 18.46 40 18.49 39.99C18.5 39.99 18.51 39.99 18.52 39.99C18.54 39.99 18.58 39.98 18.6 39.97C18.61 39.97 18.62 39.96 18.63 39.96C18.65 39.95 18.68 39.94 18.7 39.94C18.71 39.94 18.72 39.93 18.74 39.93C18.76 39.92 18.79 39.91 18.81 39.89C18.82 39.89 18.82 39.89 18.83 39.89L36.25 31.44C36.59 31.27 36.82 30.92 36.82 30.53L36.82 9.45C36.8 9.44 36.8 9.43 36.8 9.43ZM18.37 2.13L33.44 9.43L27.89 12.13L12.83 4.82L18.37 2.13ZM18.37 16.74L3.31 9.43L10.51 5.95L25.57 13.25L18.37 16.74ZM2.02 11.06L17.36 18.5L17.36 37.35L2.02 29.91L2.02 11.06ZM19.39 37.35L19.39 18.5L26.59 15.01L26.59 19.94C26.59 20.49 27.04 20.95 27.6 20.95C28.16 20.95 28.61 20.49 28.61 19.94L28.61 14.02L34.78 11.03L34.78 29.88L19.39 37.35Z" fill="#00B307" fill-opacity="1.000000" fill-rule="nonzero"/>
</svg>
